<svg width="131" height="120" viewBox="0 0 131 120" fill="none" xmlns="http://www.w3.org/2000/svg">
<ellipse cx="1.77027" cy="1.76471" rx="1.77027" ry="1.76471" fill="#9A9A9A" fill-opacity="0.9"/>
<ellipse cx="1.77027" cy="12.3526" rx="1.77027" ry="1.76471" fill="#9A9A9A" fill-opacity="0.9"/>
<ellipse cx="1.77027" cy="22.9405" rx="1.77027" ry="1.76471" fill="#9A9A9A" fill-opacity="0.9"/>
<ellipse cx="1.77027" cy="33.5303" rx="1.77027" ry="1.76471" fill="#9A9A9A" fill-opacity="0.9"/>
<ellipse cx="1.77027" cy="44.1182" rx="1.77027" ry="1.76471" fill="#9A9A9A" fill-opacity="0.9"/>
<ellipse cx="1.77027" cy="54.7061" rx="1.77027" ry="1.76471" fill="#9A9A9A" fill-opacity="0.9"/>
<ellipse cx="1.77027" cy="65.294" rx="1.77027" ry="1.76471" fill="#9A9A9A" fill-opacity="0.9"/>
<ellipse cx="1.77027" cy="75.8819" rx="1.77027" ry="1.76471" fill="#9A9A9A" fill-opacity="0.9"/>
<ellipse cx="1.77027" cy="86.4698" rx="1.77027" ry="1.7647" fill="#9A9A9A" fill-opacity="0.9"/>
<ellipse cx="1.77027" cy="97.0596" rx="1.77027" ry="1.76471" fill="#9A9A9A" fill-opacity="0.9"/>
<ellipse cx="1.77027" cy="107.648" rx="1.77027" ry="1.7647" fill="#9A9A9A" fill-opacity="0.9"/>
<ellipse cx="1.77027" cy="118.235" rx="1.77027" ry="1.76471" fill="#9A9A9A" fill-opacity="0.9"/>
<ellipse cx="12.3923" cy="1.76471" rx="1.77027" ry="1.76471" fill="#9A9A9A" fill-opacity="0.9"/>
<ellipse cx="12.3923" cy="12.3526" rx="1.77027" ry="1.76471" fill="#9A9A9A" fill-opacity="0.9"/>
<ellipse cx="12.3923" cy="22.9405" rx="1.77027" ry="1.76471" fill="#9A9A9A" fill-opacity="0.9"/>
<ellipse cx="12.3923" cy="33.5303" rx="1.77027" ry="1.76471" fill="#9A9A9A" fill-opacity="0.9"/>
<ellipse cx="12.3923" cy="44.1182" rx="1.77027" ry="1.76471" fill="#9A9A9A" fill-opacity="0.9"/>
<ellipse cx="12.3923" cy="54.7061" rx="1.77027" ry="1.76471" fill="#9A9A9A" fill-opacity="0.9"/>
<ellipse cx="12.3923" cy="65.294" rx="1.77027" ry="1.76471" fill="#9A9A9A" fill-opacity="0.9"/>
<ellipse cx="12.3923" cy="75.8819" rx="1.77027" ry="1.76471" fill="#9A9A9A" fill-opacity="0.9"/>
<ellipse cx="12.3923" cy="86.4698" rx="1.77027" ry="1.7647" fill="#9A9A9A" fill-opacity="0.9"/>
<ellipse cx="12.3923" cy="97.0596" rx="1.77027" ry="1.76471" fill="#9A9A9A" fill-opacity="0.9"/>
<ellipse cx="12.3923" cy="107.648" rx="1.77027" ry="1.7647" fill="#9A9A9A" fill-opacity="0.9"/>
<ellipse cx="12.3923" cy="118.235" rx="1.77027" ry="1.76471" fill="#9A9A9A" fill-opacity="0.9"/>
<ellipse cx="23.0134" cy="1.76471" rx="1.77027" ry="1.76471" fill="#9A9A9A" fill-opacity="0.9"/>
<ellipse cx="23.0134" cy="12.3526" rx="1.77027" ry="1.76471" fill="#9A9A9A" fill-opacity="0.9"/>
<ellipse cx="23.0134" cy="22.9405" rx="1.77027" ry="1.76471" fill="#9A9A9A" fill-opacity="0.9"/>
<ellipse cx="23.0134" cy="33.5303" rx="1.77027" ry="1.76471" fill="#9A9A9A" fill-opacity="0.9"/>
<ellipse cx="23.0134" cy="44.1182" rx="1.77027" ry="1.76471" fill="#9A9A9A" fill-opacity="0.9"/>
<ellipse cx="23.0134" cy="54.7061" rx="1.77027" ry="1.76471" fill="#9A9A9A" fill-opacity="0.9"/>
<ellipse cx="23.0134" cy="65.294" rx="1.77027" ry="1.76471" fill="#9A9A9A" fill-opacity="0.9"/>
<ellipse cx="23.0134" cy="75.8819" rx="1.77027" ry="1.76471" fill="#9A9A9A" fill-opacity="0.9"/>
<ellipse cx="23.0134" cy="86.4698" rx="1.77027" ry="1.7647" fill="#9A9A9A" fill-opacity="0.9"/>
<ellipse cx="23.0134" cy="97.0596" rx="1.77027" ry="1.76471" fill="#9A9A9A" fill-opacity="0.9"/>
<ellipse cx="23.0134" cy="107.648" rx="1.77027" ry="1.7647" fill="#9A9A9A" fill-opacity="0.9"/>
<ellipse cx="23.0134" cy="118.235" rx="1.77027" ry="1.76471" fill="#9A9A9A" fill-opacity="0.9"/>
<ellipse cx="33.6355" cy="1.76471" rx="1.77027" ry="1.76471" fill="#9A9A9A" fill-opacity="0.9"/>
<ellipse cx="33.6355" cy="12.3526" rx="1.77027" ry="1.76471" fill="#9A9A9A" fill-opacity="0.9"/>
<ellipse cx="33.6355" cy="22.9405" rx="1.77027" ry="1.76471" fill="#9A9A9A" fill-opacity="0.9"/>
<ellipse cx="33.6355" cy="33.5303" rx="1.77027" ry="1.76471" fill="#9A9A9A" fill-opacity="0.9"/>
<ellipse cx="33.6355" cy="44.1182" rx="1.77027" ry="1.76471" fill="#9A9A9A" fill-opacity="0.9"/>
<ellipse cx="33.6355" cy="54.7061" rx="1.77027" ry="1.76471" fill="#9A9A9A" fill-opacity="0.9"/>
<ellipse cx="33.6355" cy="65.294" rx="1.77027" ry="1.76471" fill="#9A9A9A" fill-opacity="0.9"/>
<ellipse cx="33.6355" cy="75.8819" rx="1.77027" ry="1.76471" fill="#9A9A9A" fill-opacity="0.9"/>
<ellipse cx="33.6355" cy="86.4698" rx="1.77027" ry="1.7647" fill="#9A9A9A" fill-opacity="0.9"/>
<ellipse cx="33.6355" cy="97.0596" rx="1.77027" ry="1.76471" fill="#9A9A9A" fill-opacity="0.9"/>
<ellipse cx="33.6355" cy="107.648" rx="1.77027" ry="1.7647" fill="#9A9A9A" fill-opacity="0.9"/>
<ellipse cx="33.6355" cy="118.235" rx="1.77027" ry="1.76471" fill="#9A9A9A" fill-opacity="0.9"/>
<ellipse cx="44.2566" cy="1.76471" rx="1.77027" ry="1.76471" fill="#9A9A9A" fill-opacity="0.9"/>
<ellipse cx="44.2566" cy="12.3526" rx="1.77027" ry="1.76471" fill="#9A9A9A" fill-opacity="0.9"/>
<ellipse cx="44.2566" cy="22.9405" rx="1.77027" ry="1.76471" fill="#9A9A9A" fill-opacity="0.9"/>
<ellipse cx="44.2566" cy="33.5303" rx="1.77027" ry="1.76471" fill="#9A9A9A" fill-opacity="0.9"/>
<ellipse cx="44.2566" cy="44.1182" rx="1.77027" ry="1.76471" fill="#9A9A9A" fill-opacity="0.9"/>
<ellipse cx="44.2566" cy="54.7061" rx="1.77027" ry="1.76471" fill="#9A9A9A" fill-opacity="0.9"/>
<ellipse cx="44.2566" cy="65.294" rx="1.77027" ry="1.76471" fill="#9A9A9A" fill-opacity="0.9"/>
<ellipse cx="44.2566" cy="75.8819" rx="1.77027" ry="1.76471" fill="#9A9A9A" fill-opacity="0.9"/>
<ellipse cx="44.2566" cy="86.4698" rx="1.77027" ry="1.7647" fill="#9A9A9A" fill-opacity="0.9"/>
<ellipse cx="44.2566" cy="97.0596" rx="1.77027" ry="1.76471" fill="#9A9A9A" fill-opacity="0.9"/>
<ellipse cx="44.2566" cy="107.648" rx="1.77027" ry="1.7647" fill="#9A9A9A" fill-opacity="0.9"/>
<ellipse cx="44.2566" cy="118.235" rx="1.77027" ry="1.76471" fill="#9A9A9A" fill-opacity="0.9"/>
<ellipse cx="54.8787" cy="1.76471" rx="1.77027" ry="1.76471" fill="#9A9A9A" fill-opacity="0.9"/>
<ellipse cx="54.8787" cy="12.3526" rx="1.77027" ry="1.76471" fill="#9A9A9A" fill-opacity="0.9"/>
<ellipse cx="54.8787" cy="22.9405" rx="1.77027" ry="1.76471" fill="#9A9A9A" fill-opacity="0.9"/>
<ellipse cx="54.8787" cy="33.5303" rx="1.77027" ry="1.76471" fill="#9A9A9A" fill-opacity="0.9"/>
<ellipse cx="54.8787" cy="44.1182" rx="1.77027" ry="1.76471" fill="#9A9A9A" fill-opacity="0.9"/>
<ellipse cx="54.8787" cy="54.7061" rx="1.77027" ry="1.76471" fill="#9A9A9A" fill-opacity="0.9"/>
<ellipse cx="54.8787" cy="65.294" rx="1.77027" ry="1.76471" fill="#9A9A9A" fill-opacity="0.9"/>
<ellipse cx="54.8787" cy="75.8819" rx="1.77027" ry="1.76471" fill="#9A9A9A" fill-opacity="0.9"/>
<ellipse cx="54.8787" cy="86.4698" rx="1.77027" ry="1.7647" fill="#9A9A9A" fill-opacity="0.9"/>
<ellipse cx="54.8787" cy="97.0596" rx="1.77027" ry="1.76471" fill="#9A9A9A" fill-opacity="0.9"/>
<ellipse cx="54.8787" cy="107.648" rx="1.77027" ry="1.7647" fill="#9A9A9A" fill-opacity="0.9"/>
<ellipse cx="54.8787" cy="118.235" rx="1.77027" ry="1.76471" fill="#9A9A9A" fill-opacity="0.9"/>
<ellipse cx="65.4998" cy="1.76471" rx="1.77027" ry="1.76471" fill="#9A9A9A" fill-opacity="0.9"/>
<ellipse cx="65.4998" cy="12.3526" rx="1.77027" ry="1.76471" fill="#9A9A9A" fill-opacity="0.9"/>
<ellipse cx="65.4998" cy="22.9405" rx="1.77027" ry="1.76471" fill="#9A9A9A" fill-opacity="0.9"/>
<ellipse cx="65.4998" cy="33.5303" rx="1.77027" ry="1.76471" fill="#9A9A9A" fill-opacity="0.9"/>
<ellipse cx="65.4998" cy="44.1182" rx="1.77027" ry="1.76471" fill="#9A9A9A" fill-opacity="0.9"/>
<ellipse cx="65.4998" cy="54.7061" rx="1.77027" ry="1.76471" fill="#9A9A9A" fill-opacity="0.9"/>
<ellipse cx="65.4998" cy="65.294" rx="1.77027" ry="1.76471" fill="#9A9A9A" fill-opacity="0.9"/>
<ellipse cx="65.4998" cy="75.8819" rx="1.77027" ry="1.76471" fill="#9A9A9A" fill-opacity="0.9"/>
<ellipse cx="65.4998" cy="86.4698" rx="1.77027" ry="1.7647" fill="#9A9A9A" fill-opacity="0.9"/>
<ellipse cx="65.4998" cy="97.0596" rx="1.77027" ry="1.76471" fill="#9A9A9A" fill-opacity="0.9"/>
<ellipse cx="65.4998" cy="107.648" rx="1.77027" ry="1.7647" fill="#9A9A9A" fill-opacity="0.9"/>
<ellipse cx="65.4998" cy="118.235" rx="1.77027" ry="1.76471" fill="#9A9A9A" fill-opacity="0.9"/>
<ellipse cx="76.1218" cy="1.76471" rx="1.77027" ry="1.76471" fill="#9A9A9A" fill-opacity="0.9"/>
<ellipse cx="86.7429" cy="1.76471" rx="1.77026" ry="1.76471" fill="#9A9A9A" fill-opacity="0.9"/>
<ellipse cx="97.365" cy="1.76471" rx="1.77028" ry="1.76471" fill="#9A9A9A" fill-opacity="0.9"/>
<ellipse cx="107.986" cy="1.76471" rx="1.77027" ry="1.76471" fill="#9A9A9A" fill-opacity="0.9"/>
<ellipse cx="118.608" cy="1.76471" rx="1.77027" ry="1.76471" fill="#9A9A9A" fill-opacity="0.9"/>
<ellipse cx="129.229" cy="1.76471" rx="1.77027" ry="1.76471" fill="#9A9A9A" fill-opacity="0.9"/>
<ellipse cx="76.1218" cy="12.3526" rx="1.77027" ry="1.76471" fill="#9A9A9A" fill-opacity="0.9"/>
<ellipse cx="86.7429" cy="12.3526" rx="1.77026" ry="1.76471" fill="#9A9A9A" fill-opacity="0.9"/>
<ellipse cx="97.365" cy="12.3526" rx="1.77028" ry="1.76471" fill="#9A9A9A" fill-opacity="0.9"/>
<ellipse cx="107.986" cy="12.3526" rx="1.77027" ry="1.76471" fill="#9A9A9A" fill-opacity="0.9"/>
<ellipse cx="118.608" cy="12.3526" rx="1.77027" ry="1.76471" fill="#9A9A9A" fill-opacity="0.9"/>
<ellipse cx="129.229" cy="12.3526" rx="1.77027" ry="1.76471" fill="#9A9A9A" fill-opacity="0.9"/>
<ellipse cx="76.1218" cy="22.9405" rx="1.77027" ry="1.76471" fill="#9A9A9A" fill-opacity="0.9"/>
<ellipse cx="86.7429" cy="22.9405" rx="1.77026" ry="1.76471" fill="#9A9A9A" fill-opacity="0.9"/>
<ellipse cx="97.365" cy="22.9405" rx="1.77028" ry="1.76471" fill="#9A9A9A" fill-opacity="0.9"/>
<ellipse cx="107.986" cy="22.9405" rx="1.77027" ry="1.76471" fill="#9A9A9A" fill-opacity="0.9"/>
<ellipse cx="118.608" cy="22.9405" rx="1.77027" ry="1.76471" fill="#9A9A9A" fill-opacity="0.9"/>
<ellipse cx="129.229" cy="22.9405" rx="1.77027" ry="1.76471" fill="#9A9A9A" fill-opacity="0.9"/>
<ellipse cx="76.1218" cy="33.5303" rx="1.77027" ry="1.76471" fill="#9A9A9A" fill-opacity="0.9"/>
<ellipse cx="86.7429" cy="33.5303" rx="1.77026" ry="1.76471" fill="#9A9A9A" fill-opacity="0.9"/>
<ellipse cx="97.365" cy="33.5303" rx="1.77028" ry="1.76471" fill="#9A9A9A" fill-opacity="0.9"/>
<ellipse cx="107.986" cy="33.5303" rx="1.77027" ry="1.76471" fill="#9A9A9A" fill-opacity="0.9"/>
<ellipse cx="118.608" cy="33.5303" rx="1.77027" ry="1.76471" fill="#9A9A9A" fill-opacity="0.9"/>
<ellipse cx="129.229" cy="33.5303" rx="1.77027" ry="1.76471" fill="#9A9A9A" fill-opacity="0.9"/>
<ellipse cx="76.1218" cy="44.1182" rx="1.77027" ry="1.76471" fill="#9A9A9A" fill-opacity="0.9"/>
<ellipse cx="86.7429" cy="44.1182" rx="1.77026" ry="1.76471" fill="#9A9A9A" fill-opacity="0.9"/>
<ellipse cx="97.365" cy="44.1182" rx="1.77028" ry="1.76471" fill="#9A9A9A" fill-opacity="0.9"/>
<ellipse cx="107.986" cy="44.1182" rx="1.77027" ry="1.76471" fill="#9A9A9A" fill-opacity="0.9"/>
<ellipse cx="118.608" cy="44.1182" rx="1.77027" ry="1.76471" fill="#9A9A9A" fill-opacity="0.9"/>
<ellipse cx="129.229" cy="44.1182" rx="1.77027" ry="1.76471" fill="#9A9A9A" fill-opacity="0.9"/>
<ellipse cx="76.1218" cy="54.7061" rx="1.77027" ry="1.76471" fill="#9A9A9A" fill-opacity="0.9"/>
<ellipse cx="86.7429" cy="54.7061" rx="1.77026" ry="1.76471" fill="#9A9A9A" fill-opacity="0.9"/>
<ellipse cx="97.365" cy="54.7061" rx="1.77028" ry="1.76471" fill="#9A9A9A" fill-opacity="0.9"/>
<ellipse cx="107.986" cy="54.7061" rx="1.77027" ry="1.76471" fill="#9A9A9A" fill-opacity="0.9"/>
<ellipse cx="118.608" cy="54.7061" rx="1.77027" ry="1.76471" fill="#9A9A9A" fill-opacity="0.9"/>
<ellipse cx="129.229" cy="54.7061" rx="1.77027" ry="1.76471" fill="#9A9A9A" fill-opacity="0.9"/>
<ellipse cx="76.1218" cy="65.294" rx="1.77027" ry="1.76471" fill="#9A9A9A" fill-opacity="0.9"/>
<ellipse cx="86.7429" cy="65.294" rx="1.77026" ry="1.76471" fill="#9A9A9A" fill-opacity="0.9"/>
<ellipse cx="97.365" cy="65.294" rx="1.77028" ry="1.76471" fill="#9A9A9A" fill-opacity="0.9"/>
<ellipse cx="107.986" cy="65.294" rx="1.77027" ry="1.76471" fill="#9A9A9A" fill-opacity="0.9"/>
<ellipse cx="118.608" cy="65.294" rx="1.77027" ry="1.76471" fill="#9A9A9A" fill-opacity="0.9"/>
<ellipse cx="129.229" cy="65.294" rx="1.77027" ry="1.76471" fill="#9A9A9A" fill-opacity="0.9"/>
<ellipse cx="76.1218" cy="75.8819" rx="1.77027" ry="1.76471" fill="#9A9A9A" fill-opacity="0.9"/>
<ellipse cx="86.7429" cy="75.8819" rx="1.77026" ry="1.76471" fill="#9A9A9A" fill-opacity="0.9"/>
<ellipse cx="97.365" cy="75.8819" rx="1.77028" ry="1.76471" fill="#9A9A9A" fill-opacity="0.9"/>
<ellipse cx="107.986" cy="75.8819" rx="1.77027" ry="1.76471" fill="#9A9A9A" fill-opacity="0.9"/>
<ellipse cx="118.608" cy="75.8819" rx="1.77027" ry="1.76471" fill="#9A9A9A" fill-opacity="0.9"/>
<ellipse cx="129.229" cy="75.8819" rx="1.77027" ry="1.76471" fill="#9A9A9A" fill-opacity="0.9"/>
<ellipse cx="76.1218" cy="86.4698" rx="1.77027" ry="1.7647" fill="#9A9A9A" fill-opacity="0.9"/>
<ellipse cx="86.7429" cy="86.4698" rx="1.77026" ry="1.7647" fill="#9A9A9A" fill-opacity="0.9"/>
<ellipse cx="97.365" cy="86.4698" rx="1.77028" ry="1.7647" fill="#9A9A9A" fill-opacity="0.9"/>
<ellipse cx="107.986" cy="86.4698" rx="1.77027" ry="1.7647" fill="#9A9A9A" fill-opacity="0.9"/>
<ellipse cx="118.608" cy="86.4698" rx="1.77027" ry="1.7647" fill="#9A9A9A" fill-opacity="0.9"/>
<ellipse cx="129.229" cy="86.4698" rx="1.77027" ry="1.7647" fill="#9A9A9A" fill-opacity="0.9"/>
<ellipse cx="76.1218" cy="97.0596" rx="1.77027" ry="1.76471" fill="#9A9A9A" fill-opacity="0.9"/>
<ellipse cx="86.7429" cy="97.0596" rx="1.77026" ry="1.76471" fill="#9A9A9A" fill-opacity="0.9"/>
<ellipse cx="97.365" cy="97.0596" rx="1.77028" ry="1.76471" fill="#9A9A9A" fill-opacity="0.9"/>
<ellipse cx="107.986" cy="97.0596" rx="1.77027" ry="1.76471" fill="#9A9A9A" fill-opacity="0.9"/>
<ellipse cx="118.608" cy="97.0596" rx="1.77027" ry="1.76471" fill="#9A9A9A" fill-opacity="0.9"/>
<ellipse cx="129.229" cy="97.0596" rx="1.77027" ry="1.76471" fill="#9A9A9A" fill-opacity="0.9"/>
<ellipse cx="76.1218" cy="107.648" rx="1.77027" ry="1.7647" fill="#9A9A9A" fill-opacity="0.9"/>
<ellipse cx="86.7429" cy="107.648" rx="1.77026" ry="1.7647" fill="#9A9A9A" fill-opacity="0.9"/>
<ellipse cx="97.365" cy="107.648" rx="1.77028" ry="1.7647" fill="#9A9A9A" fill-opacity="0.9"/>
<ellipse cx="107.986" cy="107.648" rx="1.77027" ry="1.7647" fill="#9A9A9A" fill-opacity="0.9"/>
<ellipse cx="118.608" cy="107.648" rx="1.77027" ry="1.7647" fill="#9A9A9A" fill-opacity="0.9"/>
<ellipse cx="129.229" cy="107.648" rx="1.77027" ry="1.7647" fill="#9A9A9A" fill-opacity="0.9"/>
<ellipse cx="76.1218" cy="118.235" rx="1.77027" ry="1.76471" fill="#9A9A9A" fill-opacity="0.9"/>
<ellipse cx="86.7429" cy="118.235" rx="1.77026" ry="1.76471" fill="#9A9A9A" fill-opacity="0.9"/>
<ellipse cx="97.365" cy="118.235" rx="1.77028" ry="1.76471" fill="#9A9A9A" fill-opacity="0.9"/>
<ellipse cx="107.986" cy="118.235" rx="1.77027" ry="1.76471" fill="#9A9A9A" fill-opacity="0.9"/>
<ellipse cx="118.608" cy="118.235" rx="1.77027" ry="1.76471" fill="#9A9A9A" fill-opacity="0.9"/>
<ellipse cx="129.229" cy="118.235" rx="1.77027" ry="1.76471" fill="#9A9A9A" fill-opacity="0.9"/>
</svg>
