<svg width="44" height="45" viewBox="0 0 44 45" fill="none" xmlns="http://www.w3.org/2000/svg">
<path d="M30.9329 15.5193C30.742 15.0158 30.4497 14.5587 30.0747 14.1773C29.6997 13.7959 29.2505 13.4987 28.7558 13.3049C28.0748 13.0481 27.3554 12.9123 26.6292 12.9036C25.4215 12.8476 25.0594 12.8336 22 12.8336C18.9406 12.8336 18.5785 12.8476 17.3708 12.9036C16.6438 12.912 15.9237 13.0478 15.2419 13.3049C14.7475 13.4993 14.2985 13.7969 13.9239 14.1787C13.5493 14.5605 13.2575 15.018 13.0671 15.5216C12.8148 16.2151 12.6815 16.9475 12.6729 17.687C12.6179 18.9167 12.6042 19.2853 12.6042 22.4004C12.6042 25.5154 12.6179 25.8841 12.6729 27.1138C12.6812 27.854 12.8146 28.5873 13.0671 29.2815C13.258 29.7849 13.5503 30.2421 13.9253 30.6235C14.3003 31.0048 14.7495 31.302 15.2442 31.4959C15.9252 31.7527 16.6446 31.8885 17.3708 31.8972C18.5785 31.9532 18.9406 31.9649 22 31.9649C25.0594 31.9649 25.4215 31.9532 26.6292 31.8949C27.356 31.8872 28.0762 31.7522 28.7581 31.4959C29.2526 31.3015 29.7015 31.0038 30.0761 30.622C30.4507 30.2402 30.7425 29.7828 30.9329 29.2792C31.1852 28.5857 31.3185 27.8533 31.3271 27.1138C31.3821 25.8841 31.3935 25.5154 31.3935 22.4004C31.3935 19.2853 31.3821 18.9167 31.3248 17.687C31.3172 16.9469 31.1846 16.2136 30.9329 15.5193ZM22 28.3925C20.8361 28.3925 19.6983 28.0411 18.7305 27.3826C17.7627 26.7242 17.0084 25.7884 16.563 24.6935C16.1176 23.5986 16.001 22.3937 16.2281 21.2314C16.4552 20.069 17.0156 19.0013 17.8387 18.1633C18.6617 17.3253 19.7103 16.7546 20.8519 16.5234C21.9935 16.2922 23.1768 16.4109 24.2521 16.8644C25.3274 17.3179 26.2465 18.086 26.8932 19.0714C27.5399 20.0567 27.885 21.2153 27.885 22.4004C27.885 23.9896 27.265 25.5137 26.1613 26.6374C25.0577 27.7612 23.5608 28.3925 22 28.3925ZM28.1165 17.5726C27.8445 17.5726 27.5787 17.4905 27.3526 17.3367C27.1264 17.1829 26.9502 16.9642 26.8461 16.7084C26.7421 16.4526 26.7148 16.1711 26.7679 15.8995C26.8209 15.6279 26.9519 15.3784 27.1442 15.1826C27.3365 14.9868 27.5815 14.8535 27.8482 14.7995C28.1149 14.7455 28.3914 14.7732 28.6427 14.8792C28.8939 14.9851 29.1086 15.1646 29.2597 15.3948C29.4108 15.625 29.4915 15.8957 29.4915 16.1726C29.4915 16.5439 29.3466 16.9 29.0887 17.1626C28.8309 17.4251 28.4811 17.5726 28.1165 17.5726ZM25.8202 22.4004C25.8202 23.1697 25.5962 23.9217 25.1764 24.5614C24.7566 25.2011 24.16 25.6996 23.4619 25.994C22.7639 26.2884 21.9958 26.3655 21.2547 26.2154C20.5137 26.0653 19.833 25.6948 19.2987 25.1508C18.7644 24.6069 18.4006 23.9138 18.2532 23.1592C18.1058 22.4047 18.1815 21.6226 18.4706 20.9118C18.7597 20.2011 19.2494 19.5936 19.8776 19.1662C20.5058 18.7388 21.2444 18.5107 22 18.5107C23.0132 18.5107 23.9849 18.9205 24.7013 19.6499C25.4177 20.3794 25.8202 21.3688 25.8202 22.4004ZM22 0C17.6488 0 13.3953 1.31376 9.77746 3.77515C6.15958 6.23653 3.33979 9.73499 1.67466 13.8281C0.00953221 17.9213 -0.426141 22.4252 0.422734 26.7705C1.27161 31.1157 3.3669 35.1071 6.44366 38.2399C9.52041 41.3726 13.4404 43.506 17.708 44.3704C21.9756 45.2347 26.3991 44.7911 30.419 43.0956C34.439 41.4002 37.8749 38.5291 40.2923 34.8454C42.7097 31.1617 44 26.8308 44 22.4004C44 16.4594 41.6821 10.7618 37.5563 6.56092C33.4305 2.36003 27.8348 0 22 0ZM33.3896 27.2095C33.3702 28.1777 33.1896 29.1355 32.8556 30.0422C32.5613 30.817 32.1113 31.5208 31.5343 32.1082C30.9574 32.6957 30.2662 33.1539 29.5052 33.4536C28.6154 33.7934 27.6755 33.9772 26.7254 33.9973C25.5017 34.0533 25.1121 34.0673 22 34.0673C18.8879 34.0673 18.4983 34.0533 17.2746 33.9973C16.3245 33.9772 15.3846 33.7934 14.4948 33.4536C13.7338 33.1539 13.0427 32.6957 12.4657 32.1082C11.8887 31.5208 11.4387 30.817 11.1444 30.0422C10.8106 29.1362 10.6301 28.1792 10.6104 27.2118C10.5554 25.9658 10.5417 25.5691 10.5417 22.4004C10.5417 19.2317 10.5554 18.835 10.6104 17.589C10.6294 16.6217 10.8091 15.6647 11.1421 14.7586C11.4364 13.9831 11.8867 13.2788 12.464 12.6909C13.0414 12.103 13.7331 11.6445 14.4948 11.3449C15.3847 11.0058 16.3246 10.8228 17.2746 10.8035C18.4983 10.7475 18.8879 10.7335 22 10.7335C25.1121 10.7335 25.5017 10.7475 26.7254 10.8035C27.6754 10.8228 28.6153 11.0058 29.5052 11.3449C30.2664 11.6448 30.9577 12.1034 31.5347 12.6913C32.1117 13.2791 32.5616 13.9833 32.8556 14.7586C33.1894 15.6646 33.3699 16.6216 33.3896 17.589C33.4446 18.835 33.4583 19.2317 33.4583 22.4004C33.4583 25.5691 33.4446 25.9658 33.3896 27.2118V27.2095Z" fill="#FEFBF9"/>
</svg>
