<svg width="20" height="15" viewBox="0 0 20 15" fill="none" xmlns="http://www.w3.org/2000/svg">
<path d="M9.24617 13.937C9.33026 14.0591 9.44279 14.159 9.57405 14.2279C9.70531 14.2969 9.85138 14.333 9.99967 14.333C10.148 14.333 10.294 14.2969 10.4253 14.2279C10.5565 14.159 10.6691 14.0591 10.7532 13.937L19.0032 2.02028C19.0987 1.88283 19.1547 1.72184 19.1651 1.5548C19.1755 1.38776 19.1399 1.22106 19.0623 1.07281C18.9846 0.924557 18.8678 0.800426 18.7245 0.713901C18.5813 0.627377 18.417 0.581769 18.2497 0.582032H1.74967C1.58269 0.582722 1.41906 0.628917 1.27637 0.715648C1.13369 0.80238 1.01734 0.926367 0.939855 1.07428C0.862366 1.22218 0.826662 1.38842 0.836584 1.5551C0.846506 1.72179 0.901678 1.88261 0.996167 2.02028L9.24617 13.937Z" fill="#32BDE3"/>
</svg>
