<svg width="678" height="580" viewBox="0 0 678 580" fill="none" xmlns="http://www.w3.org/2000/svg">
<circle opacity="0.1" cx="12.9173" cy="36.2503" r="12.0833" fill="#32BDE3"/>
<circle opacity="0.1" cx="157.917" cy="36.2503" r="12.0833" fill="#32BDE3"/>
<circle opacity="0.1" cx="302.917" cy="36.2503" r="12.0833" fill="#32BDE3"/>
<circle opacity="0.1" cx="447.917" cy="36.2503" r="12.0833" fill="#32BDE3"/>
<circle opacity="0.1" cx="592.917" cy="36.2503" r="12.0833" fill="#32BDE3"/>
<circle opacity="0.1" cx="85.4172" cy="12.0833" r="12.0833" fill="#32BDE3"/>
<circle opacity="0.1" cx="230.417" cy="12.0833" r="12.0833" fill="#32BDE3"/>
<circle opacity="0.1" cx="375.417" cy="12.0833" r="12.0833" fill="#32BDE3"/>
<circle opacity="0.1" cx="520.417" cy="12.0833" r="12.0833" fill="#32BDE3"/>
<circle opacity="0.1" cx="665.417" cy="12.0833" r="12.0833" fill="#32BDE3"/>
<circle opacity="0.1" cx="12.9173" cy="84.5843" r="12.0833" fill="#32BDE3"/>
<circle opacity="0.1" cx="157.917" cy="84.5843" r="12.0833" fill="#32BDE3"/>
<circle opacity="0.1" cx="302.917" cy="84.5843" r="12.0833" fill="#32BDE3"/>
<circle opacity="0.1" cx="447.917" cy="84.5843" r="12.0833" fill="#32BDE3"/>
<circle opacity="0.1" cx="592.917" cy="84.5843" r="12.0833" fill="#32BDE3"/>
<circle opacity="0.1" cx="85.4172" cy="60.4173" r="12.0833" fill="#32BDE3"/>
<circle opacity="0.1" cx="230.417" cy="60.4173" r="12.0833" fill="#32BDE3"/>
<circle opacity="0.1" cx="375.417" cy="60.4173" r="12.0833" fill="#32BDE3"/>
<circle opacity="0.1" cx="520.417" cy="60.4173" r="12.0833" fill="#32BDE3"/>
<circle opacity="0.1" cx="665.417" cy="60.4173" r="12.0833" fill="#32BDE3"/>
<circle opacity="0.1" cx="12.9173" cy="132.915" r="12.0833" fill="#32BDE3"/>
<circle opacity="0.1" cx="157.917" cy="132.915" r="12.0833" fill="#32BDE3"/>
<circle opacity="0.1" cx="302.917" cy="132.915" r="12.0833" fill="#32BDE3"/>
<circle opacity="0.1" cx="447.917" cy="132.915" r="12.0833" fill="#32BDE3"/>
<circle opacity="0.1" cx="592.917" cy="132.915" r="12.0833" fill="#32BDE3"/>
<circle opacity="0.1" cx="85.4172" cy="108.749" r="12.0833" fill="#32BDE3"/>
<circle opacity="0.1" cx="230.417" cy="108.749" r="12.0833" fill="#32BDE3"/>
<circle opacity="0.1" cx="375.417" cy="108.749" r="12.0833" fill="#32BDE3"/>
<circle opacity="0.1" cx="520.417" cy="108.749" r="12.0833" fill="#32BDE3"/>
<circle opacity="0.1" cx="665.417" cy="108.749" r="12.0833" fill="#32BDE3"/>
<circle opacity="0.1" cx="12.9173" cy="181.249" r="12.0833" fill="#32BDE3"/>
<circle opacity="0.1" cx="157.917" cy="181.249" r="12.0833" fill="#32BDE3"/>
<circle opacity="0.1" cx="302.917" cy="181.249" r="12.0833" fill="#32BDE3"/>
<circle opacity="0.1" cx="447.917" cy="181.249" r="12.0833" fill="#32BDE3"/>
<circle opacity="0.1" cx="592.917" cy="181.249" r="12.0833" fill="#32BDE3"/>
<circle opacity="0.1" cx="85.4172" cy="157.083" r="12.0833" fill="#32BDE3"/>
<circle opacity="0.1" cx="230.417" cy="157.083" r="12.0833" fill="#32BDE3"/>
<circle opacity="0.1" cx="375.417" cy="157.083" r="12.0833" fill="#32BDE3"/>
<circle opacity="0.1" cx="520.417" cy="157.083" r="12.0833" fill="#32BDE3"/>
<circle opacity="0.1" cx="665.417" cy="157.083" r="12.0833" fill="#32BDE3"/>
<circle opacity="0.1" cx="12.9173" cy="229.584" r="12.0833" fill="#32BDE3"/>
<circle opacity="0.1" cx="157.917" cy="229.584" r="12.0833" fill="#32BDE3"/>
<circle opacity="0.1" cx="302.917" cy="229.584" r="12.0833" fill="#32BDE3"/>
<circle opacity="0.1" cx="447.917" cy="229.584" r="12.0833" fill="#32BDE3"/>
<circle opacity="0.1" cx="592.917" cy="229.584" r="12.0833" fill="#32BDE3"/>
<circle opacity="0.1" cx="85.4172" cy="205.416" r="12.0833" fill="#32BDE3"/>
<circle opacity="0.1" cx="230.417" cy="205.416" r="12.0833" fill="#32BDE3"/>
<circle opacity="0.1" cx="375.417" cy="205.416" r="12.0833" fill="#32BDE3"/>
<circle opacity="0.1" cx="520.417" cy="205.416" r="12.0833" fill="#32BDE3"/>
<circle opacity="0.1" cx="665.417" cy="205.416" r="12.0833" fill="#32BDE3"/>
<circle opacity="0.1" cx="12.9173" cy="277.915" r="12.0833" fill="#32BDE3"/>
<circle opacity="0.1" cx="157.917" cy="277.915" r="12.0833" fill="#32BDE3"/>
<circle opacity="0.1" cx="302.917" cy="277.915" r="12.0833" fill="#32BDE3"/>
<circle opacity="0.1" cx="447.917" cy="277.915" r="12.0833" fill="#32BDE3"/>
<circle opacity="0.1" cx="592.917" cy="277.915" r="12.0833" fill="#32BDE3"/>
<circle opacity="0.1" cx="85.4172" cy="253.75" r="12.0833" fill="#32BDE3"/>
<circle opacity="0.1" cx="230.417" cy="253.75" r="12.0833" fill="#32BDE3"/>
<circle opacity="0.1" cx="375.417" cy="253.75" r="12.0833" fill="#32BDE3"/>
<circle opacity="0.1" cx="520.417" cy="253.75" r="12.0833" fill="#32BDE3"/>
<circle opacity="0.1" cx="665.417" cy="253.75" r="12.0833" fill="#32BDE3"/>
<circle opacity="0.1" cx="12.9173" cy="326.249" r="12.0833" fill="#32BDE3"/>
<circle opacity="0.1" cx="157.917" cy="326.249" r="12.0833" fill="#32BDE3"/>
<circle opacity="0.1" cx="302.917" cy="326.249" r="12.0833" fill="#32BDE3"/>
<circle opacity="0.1" cx="447.917" cy="326.249" r="12.0833" fill="#32BDE3"/>
<circle opacity="0.1" cx="592.917" cy="326.249" r="12.0833" fill="#32BDE3"/>
<circle opacity="0.1" cx="85.4172" cy="302.082" r="12.0833" fill="#32BDE3"/>
<circle opacity="0.1" cx="230.417" cy="302.082" r="12.0833" fill="#32BDE3"/>
<circle opacity="0.1" cx="375.417" cy="302.082" r="12.0833" fill="#32BDE3"/>
<circle opacity="0.1" cx="520.417" cy="302.082" r="12.0833" fill="#32BDE3"/>
<circle opacity="0.1" cx="665.417" cy="302.082" r="12.0833" fill="#32BDE3"/>
<circle opacity="0.1" cx="12.9173" cy="374.583" r="12.0833" fill="#32BDE3"/>
<circle opacity="0.1" cx="157.917" cy="374.583" r="12.0833" fill="#32BDE3"/>
<circle opacity="0.1" cx="302.917" cy="374.583" r="12.0833" fill="#32BDE3"/>
<circle opacity="0.1" cx="447.917" cy="374.583" r="12.0833" fill="#32BDE3"/>
<circle opacity="0.1" cx="592.917" cy="374.583" r="12.0833" fill="#32BDE3"/>
<circle opacity="0.1" cx="85.4172" cy="350.416" r="12.0833" fill="#32BDE3"/>
<circle opacity="0.1" cx="230.417" cy="350.416" r="12.0833" fill="#32BDE3"/>
<circle opacity="0.1" cx="375.417" cy="350.416" r="12.0833" fill="#32BDE3"/>
<circle opacity="0.1" cx="520.417" cy="350.416" r="12.0833" fill="#32BDE3"/>
<circle opacity="0.1" cx="665.417" cy="350.416" r="12.0833" fill="#32BDE3"/>
<circle opacity="0.1" cx="12.9173" cy="422.917" r="12.0833" fill="#32BDE3"/>
<circle opacity="0.1" cx="157.917" cy="422.917" r="12.0833" fill="#32BDE3"/>
<circle opacity="0.1" cx="302.917" cy="422.917" r="12.0833" fill="#32BDE3"/>
<circle opacity="0.1" cx="447.917" cy="422.917" r="12.0833" fill="#32BDE3"/>
<circle opacity="0.1" cx="592.917" cy="422.917" r="12.0833" fill="#32BDE3"/>
<circle opacity="0.1" cx="85.4172" cy="398.75" r="12.0833" fill="#32BDE3"/>
<circle opacity="0.1" cx="230.417" cy="398.75" r="12.0833" fill="#32BDE3"/>
<circle opacity="0.1" cx="375.417" cy="398.75" r="12.0833" fill="#32BDE3"/>
<circle opacity="0.1" cx="520.417" cy="398.75" r="12.0833" fill="#32BDE3"/>
<circle opacity="0.1" cx="665.417" cy="398.75" r="12.0833" fill="#32BDE3"/>
<circle opacity="0.1" cx="12.9173" cy="471.248" r="12.0833" fill="#32BDE3"/>
<circle opacity="0.1" cx="157.917" cy="471.248" r="12.0833" fill="#32BDE3"/>
<circle opacity="0.1" cx="302.917" cy="471.248" r="12.0833" fill="#32BDE3"/>
<circle opacity="0.1" cx="447.917" cy="471.248" r="12.0833" fill="#32BDE3"/>
<circle opacity="0.1" cx="592.917" cy="471.248" r="12.0833" fill="#32BDE3"/>
<circle opacity="0.1" cx="85.4172" cy="447.082" r="12.0833" fill="#32BDE3"/>
<circle opacity="0.1" cx="230.417" cy="447.082" r="12.0833" fill="#32BDE3"/>
<circle opacity="0.1" cx="375.417" cy="447.082" r="12.0833" fill="#32BDE3"/>
<circle opacity="0.1" cx="520.417" cy="447.082" r="12.0833" fill="#32BDE3"/>
<circle opacity="0.1" cx="665.417" cy="447.082" r="12.0833" fill="#32BDE3"/>
<circle opacity="0.1" cx="12.9173" cy="519.583" r="12.0833" fill="#32BDE3"/>
<circle opacity="0.1" cx="157.917" cy="519.583" r="12.0833" fill="#32BDE3"/>
<circle opacity="0.1" cx="302.917" cy="519.583" r="12.0833" fill="#32BDE3"/>
<circle opacity="0.1" cx="447.917" cy="519.583" r="12.0833" fill="#32BDE3"/>
<circle opacity="0.1" cx="592.917" cy="519.583" r="12.0833" fill="#32BDE3"/>
<circle opacity="0.1" cx="85.4172" cy="495.416" r="12.0833" fill="#32BDE3"/>
<circle opacity="0.1" cx="230.417" cy="495.416" r="12.0833" fill="#32BDE3"/>
<circle opacity="0.1" cx="375.417" cy="495.416" r="12.0833" fill="#32BDE3"/>
<circle opacity="0.1" cx="520.417" cy="495.416" r="12.0833" fill="#32BDE3"/>
<circle opacity="0.1" cx="665.417" cy="495.416" r="12.0833" fill="#32BDE3"/>
<circle opacity="0.1" cx="12.9173" cy="567.917" r="12.0833" fill="#32BDE3"/>
<circle opacity="0.1" cx="157.917" cy="567.917" r="12.0833" fill="#32BDE3"/>
<circle opacity="0.1" cx="302.917" cy="567.917" r="12.0833" fill="#32BDE3"/>
<circle opacity="0.1" cx="447.917" cy="567.917" r="12.0833" fill="#32BDE3"/>
<circle opacity="0.1" cx="592.917" cy="567.917" r="12.0833" fill="#32BDE3"/>
<circle opacity="0.1" cx="85.4172" cy="543.749" r="12.0833" fill="#32BDE3"/>
<circle opacity="0.1" cx="230.417" cy="543.749" r="12.0833" fill="#32BDE3"/>
<circle opacity="0.1" cx="375.417" cy="543.749" r="12.0833" fill="#32BDE3"/>
<circle opacity="0.1" cx="520.417" cy="543.749" r="12.0833" fill="#32BDE3"/>
<circle opacity="0.1" cx="665.417" cy="543.749" r="12.0833" fill="#32BDE3"/>
</svg>
