<svg width="297" height="318" viewBox="0 0 297 318" fill="none" xmlns="http://www.w3.org/2000/svg">
<g opacity="0.2">
<circle cx="35.7143" cy="17.142" r="5.71429" fill="#32BDE3"/>
<circle cx="104.286" cy="17.142" r="5.71429" fill="#32BDE3"/>
<circle cx="172.857" cy="17.142" r="5.71429" fill="#32BDE3"/>
<circle cx="241.428" cy="17.142" r="5.71429" fill="#32BDE3"/>
<circle cx="70.0004" cy="5.71429" r="5.71429" fill="#32BDE3"/>
<circle cx="138.572" cy="5.71429" r="5.71429" fill="#32BDE3"/>
<circle cx="207.143" cy="5.71429" r="5.71429" fill="#32BDE3"/>
<circle cx="275.714" cy="5.71429" r="5.71429" fill="#32BDE3"/>
<circle cx="35.7143" cy="39.9994" r="5.71429" fill="#32BDE3"/>
<circle cx="104.286" cy="39.9994" r="5.71429" fill="#32BDE3"/>
<circle cx="172.857" cy="39.9994" r="5.71429" fill="#32BDE3"/>
<circle cx="241.428" cy="39.9994" r="5.71429" fill="#32BDE3"/>
<circle cx="70.0004" cy="28.5717" r="5.71429" fill="#32BDE3"/>
<circle cx="138.572" cy="28.5717" r="5.71429" fill="#32BDE3"/>
<circle cx="207.143" cy="28.5717" r="5.71429" fill="#32BDE3"/>
<circle cx="275.714" cy="28.5717" r="5.71429" fill="#32BDE3"/>
<circle cx="35.7143" cy="62.8569" r="5.71429" fill="#32BDE3"/>
<circle cx="104.286" cy="62.8569" r="5.71429" fill="#32BDE3"/>
<circle cx="172.857" cy="62.8569" r="5.71429" fill="#32BDE3"/>
<circle cx="241.428" cy="62.8569" r="5.71429" fill="#32BDE3"/>
<circle cx="70.0004" cy="51.4291" r="5.71429" fill="#32BDE3"/>
<circle cx="138.572" cy="51.4291" r="5.71429" fill="#32BDE3"/>
<circle cx="207.143" cy="51.4291" r="5.71429" fill="#32BDE3"/>
<circle cx="275.714" cy="51.4291" r="5.71429" fill="#32BDE3"/>
<circle cx="35.7143" cy="85.7143" r="5.71429" fill="#32BDE3"/>
<circle cx="104.286" cy="85.7143" r="5.71429" fill="#32BDE3"/>
<circle cx="172.857" cy="85.7143" r="5.71429" fill="#32BDE3"/>
<circle cx="241.428" cy="85.7143" r="5.71429" fill="#32BDE3"/>
<circle cx="70.0004" cy="74.2866" r="5.71429" fill="#32BDE3"/>
<circle cx="138.572" cy="74.2866" r="5.71429" fill="#32BDE3"/>
<circle cx="207.143" cy="74.2866" r="5.71429" fill="#32BDE3"/>
<circle cx="275.714" cy="74.2866" r="5.71429" fill="#32BDE3"/>
<circle cx="35.7143" cy="108.572" r="5.71429" fill="#32BDE3"/>
<circle cx="5.71429" cy="108.572" r="5.71429" fill="#32BDE3"/>
<circle cx="5.71429" cy="85.7143" r="5.71429" fill="#32BDE3"/>
<circle cx="5.71429" cy="62.7143" r="5.71429" fill="#32BDE3"/>
<circle cx="104.286" cy="108.572" r="5.71429" fill="#32BDE3"/>
<circle cx="172.857" cy="108.572" r="5.71429" fill="#32BDE3"/>
<circle cx="241.428" cy="108.572" r="5.71429" fill="#32BDE3"/>
<circle cx="70.0004" cy="97.142" r="5.71429" fill="#32BDE3"/>
<circle cx="138.572" cy="97.142" r="5.71429" fill="#32BDE3"/>
<circle cx="207.143" cy="97.142" r="5.71429" fill="#32BDE3"/>
<circle cx="275.714" cy="97.142" r="5.71429" fill="#32BDE3"/>
<circle cx="35.7143" cy="131.429" r="5.71429" fill="#32BDE3"/>
<circle cx="104.286" cy="131.429" r="5.71429" fill="#32BDE3"/>
<circle cx="172.857" cy="131.429" r="5.71429" fill="#32BDE3"/>
<circle cx="241.428" cy="131.429" r="5.71429" fill="#32BDE3"/>
<circle cx="70.0004" cy="119.999" r="5.71429" fill="#32BDE3"/>
<circle cx="138.572" cy="119.999" r="5.71429" fill="#32BDE3"/>
<circle cx="207.143" cy="119.999" r="5.71429" fill="#32BDE3"/>
<circle cx="275.714" cy="119.999" r="5.71429" fill="#32BDE3"/>
<circle cx="35.7143" cy="154.287" r="5.71429" fill="#32BDE3"/>
<circle cx="104.286" cy="154.287" r="5.71429" fill="#32BDE3"/>
<circle cx="172.857" cy="154.287" r="5.71429" fill="#32BDE3"/>
<circle cx="241.428" cy="154.287" r="5.71429" fill="#32BDE3"/>
<circle cx="70.0004" cy="142.857" r="5.71429" fill="#32BDE3"/>
<circle cx="138.572" cy="142.857" r="5.71429" fill="#32BDE3"/>
<circle cx="207.143" cy="142.857" r="5.71429" fill="#32BDE3"/>
<circle cx="275.714" cy="142.857" r="5.71429" fill="#32BDE3"/>
<circle cx="104.286" cy="177.142" r="5.71429" fill="#32BDE3"/>
<circle cx="172.857" cy="177.142" r="5.71429" fill="#32BDE3"/>
<circle cx="241.428" cy="177.142" r="5.71429" fill="#32BDE3"/>
<circle cx="70.0004" cy="165.714" r="5.71429" fill="#32BDE3"/>
<circle cx="138.572" cy="165.714" r="5.71429" fill="#32BDE3"/>
<circle cx="207.143" cy="165.714" r="5.71429" fill="#32BDE3"/>
<circle cx="275.714" cy="165.714" r="5.71429" fill="#32BDE3"/>
<circle cx="104.286" cy="199.999" r="5.71429" fill="#32BDE3"/>
<circle cx="172.857" cy="199.999" r="5.71429" fill="#32BDE3"/>
<circle cx="241.428" cy="199.999" r="5.71429" fill="#32BDE3"/>
<circle cx="70.0004" cy="188.572" r="5.71429" fill="#32BDE3"/>
<circle cx="138.572" cy="188.572" r="5.71429" fill="#32BDE3"/>
<circle cx="207.143" cy="188.572" r="5.71429" fill="#32BDE3"/>
<circle cx="275.714" cy="188.572" r="5.71429" fill="#32BDE3"/>
<circle cx="104.286" cy="222.857" r="5.71429" fill="#32BDE3"/>
<circle cx="172.857" cy="222.857" r="5.71429" fill="#32BDE3"/>
<circle cx="241.428" cy="222.857" r="5.71429" fill="#32BDE3"/>
<circle cx="138.572" cy="211.429" r="5.71429" fill="#32BDE3"/>
<circle cx="207.143" cy="211.429" r="5.71429" fill="#32BDE3"/>
<circle cx="275.714" cy="211.429" r="5.71429" fill="#32BDE3"/>
<circle cx="172.857" cy="245.714" r="5.71429" fill="#32BDE3"/>
<circle cx="241.428" cy="245.714" r="5.71429" fill="#32BDE3"/>
<circle cx="138.572" cy="234.287" r="5.71429" fill="#32BDE3"/>
<circle cx="207.143" cy="234.287" r="5.71429" fill="#32BDE3"/>
<circle cx="275.714" cy="234.287" r="5.71429" fill="#32BDE3"/>
<circle cx="172.857" cy="268.572" r="5.71429" fill="#32BDE3"/>
<circle cx="241.428" cy="268.572" r="5.71429" fill="#32BDE3"/>
<circle cx="138.572" cy="257.142" r="5.71429" fill="#32BDE3"/>
<circle cx="207.143" cy="257.144" r="5.71429" fill="#32BDE3"/>
<circle cx="207.143" cy="281.714" r="5.71429" fill="#32BDE3"/>
<circle cx="241.714" cy="298.714" r="5.71429" fill="#32BDE3"/>
<circle cx="275.714" cy="286.714" r="5.71429" fill="#32BDE3"/>
<circle cx="275.714" cy="311.714" r="5.71429" fill="#32BDE3"/>
<circle cx="275.714" cy="257.142" r="5.71429" fill="#32BDE3"/>
</g>
</svg>
