<svg width="596" height="546" viewBox="0 0 596 546" fill="none" xmlns="http://www.w3.org/2000/svg">
<g opacity="0.1">
<ellipse cx="8.05405" cy="8.02941" rx="8.05405" ry="8.02941" fill="white"/>
<ellipse cx="8.05405" cy="56.2057" rx="8.05405" ry="8.02941" fill="white"/>
<ellipse cx="8.05405" cy="104.382" rx="8.05405" ry="8.02941" fill="white"/>
<ellipse cx="8.05405" cy="152.559" rx="8.05405" ry="8.02941" fill="white"/>
<ellipse cx="8.05405" cy="200.735" rx="8.05405" ry="8.02941" fill="white"/>
<ellipse cx="8.05405" cy="248.912" rx="8.05405" ry="8.02942" fill="white"/>
<ellipse cx="8.05405" cy="297.088" rx="8.05405" ry="8.02943" fill="white"/>
<ellipse cx="8.05405" cy="345.265" rx="8.05405" ry="8.02942" fill="white"/>
<ellipse cx="8.05405" cy="393.441" rx="8.05405" ry="8.0294" fill="white"/>
<ellipse cx="8.05405" cy="441.618" rx="8.05405" ry="8.02942" fill="white"/>
<ellipse cx="8.05405" cy="489.794" rx="8.05405" ry="8.0294" fill="white"/>
<ellipse cx="8.05405" cy="537.97" rx="8.05405" ry="8.02945" fill="white"/>
<ellipse cx="56.3783" cy="8.02941" rx="8.05405" ry="8.02941" fill="white"/>
<ellipse cx="56.3783" cy="56.2057" rx="8.05405" ry="8.02941" fill="white"/>
<ellipse cx="56.3783" cy="104.382" rx="8.05405" ry="8.02941" fill="white"/>
<ellipse cx="56.3783" cy="152.559" rx="8.05405" ry="8.02941" fill="white"/>
<ellipse cx="56.3783" cy="200.735" rx="8.05405" ry="8.02941" fill="white"/>
<ellipse cx="56.3783" cy="248.912" rx="8.05405" ry="8.02942" fill="white"/>
<ellipse cx="56.3783" cy="297.088" rx="8.05405" ry="8.02943" fill="white"/>
<ellipse cx="56.3783" cy="345.265" rx="8.05405" ry="8.02942" fill="white"/>
<ellipse cx="56.3783" cy="393.441" rx="8.05405" ry="8.0294" fill="white"/>
<ellipse cx="56.3783" cy="441.618" rx="8.05405" ry="8.02942" fill="white"/>
<ellipse cx="56.3783" cy="489.794" rx="8.05405" ry="8.0294" fill="white"/>
<ellipse cx="56.3783" cy="537.97" rx="8.05405" ry="8.02945" fill="white"/>
<ellipse cx="104.703" cy="8.02941" rx="8.05405" ry="8.02941" fill="white"/>
<ellipse cx="104.703" cy="56.2057" rx="8.05405" ry="8.02941" fill="white"/>
<ellipse cx="104.703" cy="104.382" rx="8.05405" ry="8.02941" fill="white"/>
<ellipse cx="104.703" cy="152.559" rx="8.05405" ry="8.02941" fill="white"/>
<ellipse cx="104.703" cy="200.735" rx="8.05405" ry="8.02941" fill="white"/>
<ellipse cx="104.703" cy="248.912" rx="8.05405" ry="8.02942" fill="white"/>
<ellipse cx="104.703" cy="297.088" rx="8.05405" ry="8.02943" fill="white"/>
<ellipse cx="104.703" cy="345.265" rx="8.05405" ry="8.02942" fill="white"/>
<ellipse cx="104.703" cy="393.441" rx="8.05405" ry="8.0294" fill="white"/>
<ellipse cx="104.703" cy="441.618" rx="8.05405" ry="8.02942" fill="white"/>
<ellipse cx="104.703" cy="489.794" rx="8.05405" ry="8.0294" fill="white"/>
<ellipse cx="104.703" cy="537.97" rx="8.05405" ry="8.02945" fill="white"/>
<ellipse cx="153.027" cy="8.02941" rx="8.05407" ry="8.02941" fill="white"/>
<ellipse cx="153.027" cy="56.2057" rx="8.05407" ry="8.02941" fill="white"/>
<ellipse cx="153.027" cy="104.382" rx="8.05407" ry="8.02941" fill="white"/>
<ellipse cx="153.027" cy="152.559" rx="8.05407" ry="8.02941" fill="white"/>
<ellipse cx="153.027" cy="200.735" rx="8.05407" ry="8.02941" fill="white"/>
<ellipse cx="153.027" cy="248.912" rx="8.05407" ry="8.02942" fill="white"/>
<ellipse cx="153.027" cy="297.088" rx="8.05407" ry="8.02943" fill="white"/>
<ellipse cx="153.027" cy="345.265" rx="8.05407" ry="8.02942" fill="white"/>
<ellipse cx="153.027" cy="393.441" rx="8.05407" ry="8.0294" fill="white"/>
<ellipse cx="153.027" cy="441.618" rx="8.05407" ry="8.02942" fill="white"/>
<ellipse cx="153.027" cy="489.794" rx="8.05407" ry="8.0294" fill="white"/>
<ellipse cx="153.027" cy="537.97" rx="8.05407" ry="8.02945" fill="white"/>
<ellipse cx="201.351" cy="8.02941" rx="8.05405" ry="8.02941" fill="white"/>
<ellipse cx="201.351" cy="56.2057" rx="8.05405" ry="8.02941" fill="white"/>
<ellipse cx="201.351" cy="104.382" rx="8.05405" ry="8.02941" fill="white"/>
<ellipse cx="201.351" cy="152.559" rx="8.05405" ry="8.02941" fill="white"/>
<ellipse cx="201.351" cy="200.735" rx="8.05405" ry="8.02941" fill="white"/>
<ellipse cx="201.351" cy="248.912" rx="8.05405" ry="8.02942" fill="white"/>
<ellipse cx="201.351" cy="297.088" rx="8.05405" ry="8.02943" fill="white"/>
<ellipse cx="201.351" cy="345.265" rx="8.05405" ry="8.02942" fill="white"/>
<ellipse cx="201.351" cy="393.441" rx="8.05405" ry="8.0294" fill="white"/>
<ellipse cx="201.351" cy="441.618" rx="8.05405" ry="8.02942" fill="white"/>
<ellipse cx="201.351" cy="489.794" rx="8.05405" ry="8.0294" fill="white"/>
<ellipse cx="201.351" cy="537.97" rx="8.05405" ry="8.02945" fill="white"/>
<ellipse cx="249.676" cy="8.02941" rx="8.05406" ry="8.02941" fill="white"/>
<ellipse cx="249.676" cy="56.2057" rx="8.05406" ry="8.02941" fill="white"/>
<ellipse cx="249.676" cy="104.382" rx="8.05406" ry="8.02941" fill="white"/>
<ellipse cx="249.676" cy="152.559" rx="8.05406" ry="8.02941" fill="white"/>
<ellipse cx="249.676" cy="200.735" rx="8.05406" ry="8.02941" fill="white"/>
<ellipse cx="249.676" cy="248.912" rx="8.05406" ry="8.02942" fill="white"/>
<ellipse cx="249.676" cy="297.088" rx="8.05406" ry="8.02943" fill="white"/>
<ellipse cx="249.676" cy="345.265" rx="8.05406" ry="8.02942" fill="white"/>
<ellipse cx="249.676" cy="393.441" rx="8.05406" ry="8.0294" fill="white"/>
<ellipse cx="249.676" cy="441.618" rx="8.05406" ry="8.02942" fill="white"/>
<ellipse cx="249.676" cy="489.794" rx="8.05406" ry="8.0294" fill="white"/>
<ellipse cx="249.676" cy="537.97" rx="8.05406" ry="8.02945" fill="white"/>
<ellipse cx="298" cy="8.02941" rx="8.05405" ry="8.02941" fill="white"/>
<ellipse cx="298" cy="56.2057" rx="8.05405" ry="8.02941" fill="white"/>
<ellipse cx="298" cy="104.382" rx="8.05405" ry="8.02941" fill="white"/>
<ellipse cx="298" cy="152.559" rx="8.05405" ry="8.02941" fill="white"/>
<ellipse cx="298" cy="200.735" rx="8.05405" ry="8.02941" fill="white"/>
<ellipse cx="298" cy="248.912" rx="8.05405" ry="8.02942" fill="white"/>
<ellipse cx="298" cy="297.088" rx="8.05405" ry="8.02943" fill="white"/>
<ellipse cx="298" cy="345.265" rx="8.05405" ry="8.02942" fill="white"/>
<ellipse cx="298" cy="393.441" rx="8.05405" ry="8.0294" fill="white"/>
<ellipse cx="298" cy="441.618" rx="8.05405" ry="8.02942" fill="white"/>
<ellipse cx="298" cy="489.794" rx="8.05405" ry="8.0294" fill="white"/>
<ellipse cx="298" cy="537.97" rx="8.05405" ry="8.02945" fill="white"/>
<ellipse cx="346.324" cy="8.02941" rx="8.05405" ry="8.02941" fill="white"/>
<ellipse cx="394.649" cy="8.02941" rx="8.05403" ry="8.02941" fill="white"/>
<ellipse cx="442.973" cy="8.02941" rx="8.05406" ry="8.02941" fill="white"/>
<ellipse cx="491.297" cy="8.02941" rx="8.05406" ry="8.02941" fill="white"/>
<ellipse cx="539.622" cy="8.02941" rx="8.05405" ry="8.02941" fill="white"/>
<ellipse cx="587.946" cy="8.02941" rx="8.05405" ry="8.02941" fill="white"/>
<ellipse cx="346.324" cy="56.2057" rx="8.05405" ry="8.02941" fill="white"/>
<ellipse cx="394.649" cy="56.2057" rx="8.05403" ry="8.02941" fill="white"/>
<ellipse cx="442.973" cy="56.2057" rx="8.05406" ry="8.02941" fill="white"/>
<ellipse cx="491.297" cy="56.2057" rx="8.05406" ry="8.02941" fill="white"/>
<ellipse cx="539.622" cy="56.2057" rx="8.05405" ry="8.02941" fill="white"/>
<ellipse cx="587.946" cy="56.2057" rx="8.05405" ry="8.02941" fill="white"/>
<ellipse cx="346.324" cy="104.382" rx="8.05405" ry="8.02941" fill="white"/>
<ellipse cx="394.649" cy="104.382" rx="8.05403" ry="8.02941" fill="white"/>
<ellipse cx="442.973" cy="104.382" rx="8.05406" ry="8.02941" fill="white"/>
<ellipse cx="491.297" cy="104.382" rx="8.05406" ry="8.02941" fill="white"/>
<ellipse cx="539.622" cy="104.382" rx="8.05405" ry="8.02941" fill="white"/>
<ellipse cx="587.946" cy="104.382" rx="8.05405" ry="8.02941" fill="white"/>
<ellipse cx="346.324" cy="152.559" rx="8.05405" ry="8.02941" fill="white"/>
<ellipse cx="394.649" cy="152.559" rx="8.05403" ry="8.02941" fill="white"/>
<ellipse cx="442.973" cy="152.559" rx="8.05406" ry="8.02941" fill="white"/>
<ellipse cx="491.297" cy="152.559" rx="8.05406" ry="8.02941" fill="white"/>
<ellipse cx="539.622" cy="152.559" rx="8.05405" ry="8.02941" fill="white"/>
<ellipse cx="587.946" cy="152.559" rx="8.05405" ry="8.02941" fill="white"/>
<ellipse cx="346.324" cy="200.735" rx="8.05405" ry="8.02941" fill="white"/>
<ellipse cx="394.649" cy="200.735" rx="8.05403" ry="8.02941" fill="white"/>
<ellipse cx="442.973" cy="200.735" rx="8.05406" ry="8.02941" fill="white"/>
<ellipse cx="491.297" cy="200.735" rx="8.05406" ry="8.02941" fill="white"/>
<ellipse cx="539.622" cy="200.735" rx="8.05405" ry="8.02941" fill="white"/>
<ellipse cx="587.946" cy="200.735" rx="8.05405" ry="8.02941" fill="white"/>
<ellipse cx="346.324" cy="248.912" rx="8.05405" ry="8.02942" fill="white"/>
<ellipse cx="394.649" cy="248.912" rx="8.05403" ry="8.02942" fill="white"/>
<ellipse cx="442.973" cy="248.912" rx="8.05406" ry="8.02942" fill="white"/>
<ellipse cx="491.297" cy="248.912" rx="8.05406" ry="8.02942" fill="white"/>
<ellipse cx="539.622" cy="248.912" rx="8.05405" ry="8.02942" fill="white"/>
<ellipse cx="587.946" cy="248.912" rx="8.05405" ry="8.02942" fill="white"/>
<ellipse cx="346.324" cy="297.088" rx="8.05405" ry="8.02943" fill="white"/>
<ellipse cx="394.649" cy="297.088" rx="8.05403" ry="8.02943" fill="white"/>
<ellipse cx="442.973" cy="297.088" rx="8.05406" ry="8.02943" fill="white"/>
<ellipse cx="491.297" cy="297.088" rx="8.05406" ry="8.02943" fill="white"/>
<ellipse cx="539.622" cy="297.088" rx="8.05405" ry="8.02943" fill="white"/>
<ellipse cx="587.946" cy="297.088" rx="8.05405" ry="8.02943" fill="white"/>
<ellipse cx="346.324" cy="345.265" rx="8.05405" ry="8.02942" fill="white"/>
<ellipse cx="394.649" cy="345.265" rx="8.05403" ry="8.02942" fill="white"/>
<ellipse cx="442.973" cy="345.265" rx="8.05406" ry="8.02942" fill="white"/>
<ellipse cx="491.297" cy="345.265" rx="8.05406" ry="8.02942" fill="white"/>
<ellipse cx="539.622" cy="345.265" rx="8.05405" ry="8.02942" fill="white"/>
<ellipse cx="587.946" cy="345.265" rx="8.05405" ry="8.02942" fill="white"/>
<ellipse cx="346.324" cy="393.441" rx="8.05405" ry="8.0294" fill="white"/>
<ellipse cx="394.649" cy="393.441" rx="8.05403" ry="8.0294" fill="white"/>
<ellipse cx="442.973" cy="393.441" rx="8.05406" ry="8.0294" fill="white"/>
<ellipse cx="491.297" cy="393.441" rx="8.05406" ry="8.0294" fill="white"/>
<ellipse cx="539.622" cy="393.441" rx="8.05405" ry="8.0294" fill="white"/>
<ellipse cx="587.946" cy="393.441" rx="8.05405" ry="8.0294" fill="white"/>
<ellipse cx="346.324" cy="441.618" rx="8.05405" ry="8.02942" fill="white"/>
<ellipse cx="394.649" cy="441.618" rx="8.05403" ry="8.02942" fill="white"/>
<ellipse cx="442.973" cy="441.618" rx="8.05406" ry="8.02942" fill="white"/>
<ellipse cx="491.297" cy="441.618" rx="8.05406" ry="8.02942" fill="white"/>
<ellipse cx="539.622" cy="441.618" rx="8.05405" ry="8.02942" fill="white"/>
<ellipse cx="587.946" cy="441.618" rx="8.05405" ry="8.02942" fill="white"/>
<ellipse cx="346.324" cy="489.794" rx="8.05405" ry="8.0294" fill="white"/>
<ellipse cx="394.649" cy="489.794" rx="8.05403" ry="8.0294" fill="white"/>
<ellipse cx="442.973" cy="489.794" rx="8.05406" ry="8.0294" fill="white"/>
<ellipse cx="491.297" cy="489.794" rx="8.05406" ry="8.0294" fill="white"/>
<ellipse cx="539.622" cy="489.794" rx="8.05405" ry="8.0294" fill="white"/>
<ellipse cx="587.946" cy="489.794" rx="8.05405" ry="8.0294" fill="white"/>
<ellipse cx="346.324" cy="537.97" rx="8.05405" ry="8.02945" fill="white"/>
<ellipse cx="394.649" cy="537.97" rx="8.05403" ry="8.02945" fill="white"/>
<ellipse cx="442.973" cy="537.97" rx="8.05406" ry="8.02945" fill="white"/>
<ellipse cx="491.297" cy="537.97" rx="8.05406" ry="8.02945" fill="white"/>
<ellipse cx="539.622" cy="537.97" rx="8.05405" ry="8.02945" fill="white"/>
<ellipse cx="587.946" cy="537.97" rx="8.05405" ry="8.02945" fill="white"/>
</g>
</svg>
