<svg width="183" height="215" viewBox="0 0 183 215" fill="none" xmlns="http://www.w3.org/2000/svg">
<circle opacity="0.1" cx="44.6076" cy="13.391" r="4.46429" fill="#32BDE3"/>
<circle opacity="0.1" cx="98.1793" cy="13.391" r="4.46429" fill="#32BDE3"/>
<circle opacity="0.1" cx="151.749" cy="13.391" r="4.46429" fill="#32BDE3"/>
<circle opacity="0.1" cx="17.8209" cy="4.46429" r="4.46429" fill="#32BDE3"/>
<circle opacity="0.1" cx="71.3926" cy="4.46429" r="4.46429" fill="#32BDE3"/>
<circle opacity="0.1" cx="124.964" cy="4.46429" r="4.46429" fill="#32BDE3"/>
<circle opacity="0.1" cx="178.536" cy="4.46429" r="4.46429" fill="#32BDE3"/>
<circle opacity="0.1" cx="44.6076" cy="31.2509" r="4.46429" fill="#32BDE3"/>
<circle opacity="0.1" cx="98.1793" cy="31.2509" r="4.46429" fill="#32BDE3"/>
<circle opacity="0.1" cx="151.749" cy="31.2509" r="4.46429" fill="#32BDE3"/>
<circle opacity="0.1" cx="17.8209" cy="22.321" r="4.46429" fill="#32BDE3"/>
<circle opacity="0.1" cx="71.3926" cy="22.321" r="4.46429" fill="#32BDE3"/>
<circle opacity="0.1" cx="124.964" cy="22.321" r="4.46429" fill="#32BDE3"/>
<circle opacity="0.1" cx="178.536" cy="22.321" r="4.46429" fill="#32BDE3"/>
<circle opacity="0.1" cx="44.6076" cy="49.1076" r="4.46429" fill="#32BDE3"/>
<circle opacity="0.1" cx="98.1793" cy="49.1076" r="4.46429" fill="#32BDE3"/>
<circle opacity="0.1" cx="151.749" cy="49.1076" r="4.46429" fill="#32BDE3"/>
<circle opacity="0.1" cx="17.8209" cy="40.1777" r="4.46429" fill="#32BDE3"/>
<circle opacity="0.1" cx="71.3926" cy="40.1777" r="4.46429" fill="#32BDE3"/>
<circle opacity="0.1" cx="124.964" cy="40.1777" r="4.46429" fill="#32BDE3"/>
<circle opacity="0.1" cx="178.536" cy="40.1777" r="4.46429" fill="#32BDE3"/>
<circle opacity="0.1" cx="44.6076" cy="66.9643" r="4.46429" fill="#32BDE3"/>
<circle opacity="0.1" cx="98.1793" cy="66.9643" r="4.46429" fill="#32BDE3"/>
<circle opacity="0.1" cx="151.749" cy="66.9643" r="4.46429" fill="#32BDE3"/>
<circle opacity="0.1" cx="17.8209" cy="58.0375" r="4.46429" fill="#32BDE3"/>
<circle opacity="0.1" cx="71.3926" cy="58.0375" r="4.46429" fill="#32BDE3"/>
<circle opacity="0.1" cx="124.964" cy="58.0375" r="4.46429" fill="#32BDE3"/>
<circle opacity="0.1" cx="178.536" cy="58.0375" r="4.46429" fill="#32BDE3"/>
<circle opacity="0.1" cx="44.6076" cy="84.821" r="4.46429" fill="#32BDE3"/>
<circle opacity="0.1" cx="98.1793" cy="84.821" r="4.46429" fill="#32BDE3"/>
<circle opacity="0.1" cx="151.749" cy="84.821" r="4.46429" fill="#32BDE3"/>
<circle opacity="0.1" cx="17.8209" cy="75.8909" r="4.46429" fill="#32BDE3"/>
<circle opacity="0.1" cx="71.3926" cy="75.8909" r="4.46429" fill="#32BDE3"/>
<circle opacity="0.1" cx="124.964" cy="75.8909" r="4.46429" fill="#32BDE3"/>
<circle opacity="0.1" cx="178.536" cy="75.8909" r="4.46429" fill="#32BDE3"/>
<circle opacity="0.1" cx="44.6076" cy="102.678" r="4.46429" fill="#32BDE3"/>
<circle opacity="0.1" cx="98.1793" cy="102.678" r="4.46429" fill="#32BDE3"/>
<circle opacity="0.1" cx="151.749" cy="102.678" r="4.46429" fill="#32BDE3"/>
<circle opacity="0.1" cx="17.8209" cy="93.7509" r="4.46429" fill="#32BDE3"/>
<circle opacity="0.1" cx="71.3926" cy="93.7509" r="4.46429" fill="#32BDE3"/>
<circle opacity="0.1" cx="124.964" cy="93.7509" r="4.46429" fill="#32BDE3"/>
<circle opacity="0.1" cx="178.536" cy="93.7509" r="4.46429" fill="#32BDE3"/>
<circle opacity="0.1" cx="44.6076" cy="120.538" r="4.46429" fill="#32BDE3"/>
<circle opacity="0.1" cx="98.1793" cy="120.538" r="4.46429" fill="#32BDE3"/>
<circle opacity="0.1" cx="151.749" cy="120.538" r="4.46429" fill="#32BDE3"/>
<circle opacity="0.1" cx="17.8209" cy="111.608" r="4.46429" fill="#32BDE3"/>
<circle opacity="0.1" cx="71.3926" cy="111.608" r="4.46429" fill="#32BDE3"/>
<circle opacity="0.1" cx="124.964" cy="111.608" r="4.46429" fill="#32BDE3"/>
<circle opacity="0.1" cx="178.536" cy="111.608" r="4.46429" fill="#32BDE3"/>
<circle opacity="0.1" cx="44.6076" cy="138.391" r="4.46429" fill="#32BDE3"/>
<circle opacity="0.1" cx="98.1793" cy="138.391" r="4.46429" fill="#32BDE3"/>
<circle opacity="0.1" cx="151.749" cy="138.391" r="4.46429" fill="#32BDE3"/>
<circle opacity="0.1" cx="17.8209" cy="129.464" r="4.46429" fill="#32BDE3"/>
<circle opacity="0.1" cx="71.3926" cy="129.464" r="4.46429" fill="#32BDE3"/>
<circle opacity="0.1" cx="124.964" cy="129.464" r="4.46429" fill="#32BDE3"/>
<circle opacity="0.1" cx="178.536" cy="129.464" r="4.46429" fill="#32BDE3"/>
<circle opacity="0.1" cx="44.6076" cy="156.251" r="4.46429" fill="#32BDE3"/>
<circle opacity="0.1" cx="98.1793" cy="156.251" r="4.46429" fill="#32BDE3"/>
<circle opacity="0.1" cx="151.749" cy="156.251" r="4.46429" fill="#32BDE3"/>
<circle opacity="0.1" cx="17.8209" cy="147.321" r="4.46429" fill="#32BDE3"/>
<circle opacity="0.1" cx="71.3926" cy="147.321" r="4.46429" fill="#32BDE3"/>
<circle opacity="0.1" cx="124.964" cy="147.321" r="4.46429" fill="#32BDE3"/>
<circle opacity="0.1" cx="178.536" cy="147.321" r="4.46429" fill="#32BDE3"/>
<circle opacity="0.1" cx="44.6076" cy="174.108" r="4.46429" fill="#32BDE3"/>
<circle opacity="0.1" cx="98.1793" cy="174.108" r="4.46429" fill="#32BDE3"/>
<circle opacity="0.1" cx="151.749" cy="174.108" r="4.46429" fill="#32BDE3"/>
<circle opacity="0.1" cx="17.8209" cy="165.178" r="4.46429" fill="#32BDE3"/>
<circle opacity="0.1" cx="71.3926" cy="165.178" r="4.46429" fill="#32BDE3"/>
<circle opacity="0.1" cx="124.964" cy="165.178" r="4.46429" fill="#32BDE3"/>
<circle opacity="0.1" cx="178.536" cy="165.178" r="4.46429" fill="#32BDE3"/>
<circle opacity="0.1" cx="44.6076" cy="191.964" r="4.46429" fill="#32BDE3"/>
<circle opacity="0.1" cx="98.1793" cy="191.964" r="4.46429" fill="#32BDE3"/>
<circle opacity="0.1" cx="151.749" cy="191.964" r="4.46429" fill="#32BDE3"/>
<circle opacity="0.1" cx="17.8209" cy="183.038" r="4.46429" fill="#32BDE3"/>
<circle opacity="0.1" cx="71.3926" cy="183.038" r="4.46429" fill="#32BDE3"/>
<circle opacity="0.1" cx="124.964" cy="183.038" r="4.46429" fill="#32BDE3"/>
<circle opacity="0.1" cx="178.536" cy="183.038" r="4.46429" fill="#32BDE3"/>
<circle opacity="0.1" cx="44.6076" cy="209.821" r="4.46429" fill="#32BDE3"/>
<circle opacity="0.1" cx="98.1793" cy="209.821" r="4.46429" fill="#32BDE3"/>
<circle opacity="0.1" cx="151.749" cy="209.821" r="4.46429" fill="#32BDE3"/>
<circle opacity="0.1" cx="17.8209" cy="200.891" r="4.46429" fill="#32BDE3"/>
<circle opacity="0.1" cx="71.3926" cy="200.891" r="4.46429" fill="#32BDE3"/>
<circle opacity="0.1" cx="124.964" cy="200.891" r="4.46429" fill="#32BDE3"/>
<circle opacity="0.1" cx="178.536" cy="200.891" r="4.46429" fill="#32BDE3"/>
</svg>
